<svg xmlns="http://www.w3.org/2000/svg" xmlns:xlink="http://www.w3.org/1999/xlink" width="2048" zoomAndPan="magnify" viewBox="0 0 1536 1535.999932" height="2048" preserveAspectRatio="xMidYMid meet" version="1.0"><defs><clipPath id="c8c9dbdcad"><path d="M 203 180 L 1382.101562 180 L 1382.101562 1372 L 203 1372 Z M 203 180 " clip-rule="nonzero"/></clipPath></defs><g clip-path="url(#c8c9dbdcad)"><path fill="#f1e4ff" d="M 756.3125 206.726562 C 748.523438 223.726562 731.589844 263.558594 718.679688 295.242188 C 698.539062 344.652344 696.382812 353.5 703.480469 357.472656 C 708.03125 360.019531 719.804688 360.597656 729.644531 358.753906 C 739.480469 356.902344 753.566406 350.644531 760.945312 344.835938 C 774.019531 334.558594 774.6875 334.542969 787.109375 344.238281 C 794.121094 349.714844 805.113281 355.839844 811.535156 357.851562 C 817.957031 359.863281 829.199219 360.003906 836.515625 358.167969 L 849.824219 354.824219 L 834.792969 316.152344 C 826.527344 294.878906 810.886719 256.847656 800.035156 231.632812 C 789.183594 206.417969 778.097656 183.546875 775.390625 180.800781 C 772.394531 177.769531 764.90625 187.953125 756.3125 206.726562 M 1040.632812 441.5 C 1004.804688 474.703125 1001.550781 479.390625 1007.113281 489.789062 C 1010.5 496.113281 1015.902344 501.296875 1019.117188 501.296875 C 1022.328125 501.296875 1041.964844 484.722656 1062.753906 464.460938 C 1096.980469 431.101562 1099.957031 426.519531 1094.285156 415.921875 C 1090.835938 409.488281 1086.285156 404.335938 1084.167969 404.476562 C 1082.046875 404.617188 1062.453125 421.28125 1040.632812 441.5 M 455.398438 419.609375 C 446.800781 429.109375 448.140625 431.535156 482.226562 468.355469 C 516.496094 505.363281 518.554688 506.695312 528.191406 497.96875 C 533.742188 492.949219 538.285156 486.945312 538.285156 484.632812 C 538.285156 482.316406 524.324219 464.519531 507.273438 445.078125 C 490.21875 425.632812 473.601562 409.703125 470.355469 409.671875 C 467.109375 409.636719 460.378906 414.109375 455.398438 419.609375 M 689.296875 453.011719 C 667.050781 458.824219 633.269531 471.203125 614.238281 480.523438 C 592.050781 491.382812 565.503906 511.359375 540.296875 536.164062 C 509.476562 566.484375 496.183594 584.828125 478.871094 620.902344 C 464.71875 650.394531 453.890625 683.21875 448.746094 712.210938 C 443.84375 739.859375 442.003906 770.078125 444.023438 789.839844 C 445.84375 807.636719 450.738281 836.074219 454.898438 853.03125 C 459.0625 869.992188 470.8125 900.332031 481.019531 920.449219 C 491.222656 940.566406 511.457031 970.199219 525.980469 986.304688 C 542.359375 1004.460938 554.835938 1014.070312 558.820312 1011.605469 C 562.359375 1009.414062 565.25 1004.039062 565.25 999.644531 C 565.25 995.253906 570.207031 981.949219 576.257812 970.078125 C 582.316406 958.207031 597.058594 938.996094 609.027344 927.378906 C 620.996094 915.761719 644.042969 901.300781 660.242188 895.246094 C 676.445312 889.1875 702.589844 884.222656 718.34375 884.222656 L 746.988281 884.222656 L 750.386719 1047.367188 C 752.269531 1137.855469 757.277344 1236.9375 761.632812 1269.839844 C 765.953125 1302.472656 771.195312 1339.636719 773.28125 1352.425781 C 775.46875 1365.851562 779.082031 1373.671875 781.828125 1370.929688 C 784.449219 1368.308594 796.25 1308.578125 808.058594 1238.1875 C 819.863281 1167.800781 829.523438 1108.089844 829.523438 1105.496094 C 829.523438 1102.910156 838.625 1097.875 849.746094 1094.316406 C 860.867188 1090.757812 889.386719 1077.894531 913.117188 1065.726562 C 945.335938 1049.210938 967.941406 1031.964844 1002.371094 997.625 C 1031.992188 968.082031 1054.378906 940.0625 1064.972656 919.277344 C 1074.042969 901.480469 1084.578125 875.320312 1088.375 861.144531 C 1092.171875 846.964844 1094.339844 834.527344 1093.191406 833.496094 C 1092.039062 832.46875 1077.339844 830.535156 1060.523438 829.203125 L 1029.949219 826.777344 L 1023.292969 850.546875 C 1019.636719 863.613281 1007.734375 888.089844 996.847656 904.929688 C 985.964844 921.773438 965.367188 945.839844 951.070312 958.421875 C 936.773438 971.003906 923.191406 981.300781 920.890625 981.300781 C 918.585938 981.300781 911.488281 972.875 905.125 962.582031 C 898.761719 952.285156 882.609375 934.222656 869.226562 922.449219 C 855.847656 910.667969 835.121094 897.773438 823.167969 893.789062 L 801.433594 886.546875 L 830.503906 877.382812 C 849.644531 871.347656 867.292969 860.578125 882.160156 845.859375 C 894.582031 833.554688 910.207031 812.285156 916.882812 798.574219 C 926.257812 779.347656 928.992188 764.417969 928.867188 733.207031 C 928.738281 700.324219 926.066406 687.652344 914.589844 665.453125 C 906.824219 650.433594 890.953125 629.539062 879.308594 619.023438 C 867.664062 608.503906 847.460938 596.0625 834.398438 591.363281 C 821.335938 586.671875 796.761719 581.304688 779.796875 579.445312 L 748.945312 576.070312 L 747.4375 510.433594 C 746.207031 456.996094 744.421875 444.582031 737.835938 443.621094 C 733.386719 442.96875 711.542969 447.195312 689.296875 453.011719 M 807.949219 475.648438 L 807.949219 509.53125 L 836.265625 516.175781 C 851.835938 519.828125 879.863281 530.535156 898.546875 539.960938 C 920.152344 550.867188 943.800781 569.171875 963.523438 590.257812 C 980.582031 608.488281 1000.792969 636.621094 1008.4375 652.769531 C 1016.085938 668.914062 1025.078125 695.445312 1028.425781 711.714844 C 1031.777344 727.988281 1035.109375 748.578125 1035.835938 757.480469 C 1037.125 773.214844 1038.015625 773.703125 1068.175781 775.277344 L 1099.1875 776.894531 L 1099.1875 747.570312 C 1099.1875 731.445312 1093.546875 698.773438 1086.652344 674.972656 C 1079.753906 651.164062 1065.800781 617.695312 1055.640625 600.585938 C 1045.480469 583.480469 1023.40625 555.921875 1006.59375 539.339844 C 989.777344 522.757812 960.65625 500.054688 941.875 488.890625 C 923.089844 477.726562 891.949219 464.003906 872.667969 458.386719 C 853.386719 452.773438 830.933594 446.738281 822.78125 444.976562 L 807.949219 441.765625 Z M 1433.570312 536.351562 C 1433.570312 541.746094 1438.964844 544.441406 1449.75 544.441406 L 1465.929688 544.441406 L 1465.929688 587.589844 C 1465.929688 627.140625 1466.832031 630.734375 1476.71875 630.734375 C 1486.601562 630.734375 1487.503906 627.136719 1487.503906 587.589844 C 1487.503906 545.160156 1487.730469 544.441406 1500.988281 544.441406 C 1509.378906 544.441406 1514.46875 541.386719 1514.46875 536.351562 C 1514.46875 529.882812 1506.378906 528.261719 1474.019531 528.261719 C 1441.660156 528.261719 1433.570312 529.882812 1433.570312 536.351562 M 1525.257812 579.5 C 1525.257812 627.140625 1526.011719 630.734375 1536.042969 630.734375 C 1545.503906 630.734375 1546.832031 627.136719 1546.832031 601.519531 C 1546.832031 583 1549.300781 571.449219 1553.570312 569.957031 C 1557.28125 568.664062 1563.351562 568.71875 1567.054688 570.082031 C 1571.3125 571.648438 1573.796875 583.296875 1573.796875 601.648438 C 1573.796875 623.90625 1575.695312 630.734375 1581.886719 630.734375 C 1588.238281 630.734375 1589.976562 623.28125 1589.976562 595.996094 C 1589.976562 575.742188 1587.402344 559.667969 1583.808594 557.445312 C 1580.414062 555.347656 1570.707031 553.828125 1562.234375 554.070312 C 1549.390625 554.4375 1546.832031 552.328125 1546.832031 541.386719 C 1546.832031 531.859375 1543.875 528.261719 1536.042969 528.261719 C 1526.011719 528.261719 1525.257812 531.859375 1525.257812 579.5 M 1730.203125 579.5 C 1730.203125 620.496094 1731.753906 630.734375 1737.96875 630.734375 C 1743.042969 630.734375 1746.3125 623.742188 1747.40625 610.511719 C 1749.015625 591.066406 1749.984375 590.167969 1772.457031 587.164062 C 1785.316406 585.449219 1798.023438 580.59375 1800.691406 576.378906 C 1803.363281 572.164062 1805.578125 562.523438 1805.628906 554.960938 C 1805.671875 547.398438 1802.796875 538.296875 1799.238281 534.734375 C 1795.675781 531.175781 1778.6875 528.261719 1761.484375 528.261719 L 1730.203125 528.261719 Z M 2053.800781 579.5 C 2053.800781 627.140625 2054.554688 630.734375 2064.585938 630.734375 C 2074.046875 630.734375 2075.375 627.136719 2075.375 601.519531 C 2075.375 583 2077.84375 571.449219 2082.113281 569.957031 C 2085.824219 568.664062 2091.894531 568.71875 2095.597656 570.082031 C 2099.855469 571.648438 2102.339844 583.296875 2102.339844 601.648438 C 2102.339844 623.90625 2104.238281 630.734375 2110.429688 630.734375 C 2116.785156 630.734375 2118.519531 623.28125 2118.519531 595.996094 C 2118.519531 575.742188 2115.945312 559.667969 2112.351562 557.445312 C 2108.957031 555.347656 2099.25 553.828125 2090.777344 554.070312 C 2077.933594 554.4375 2075.375 552.328125 2075.375 541.386719 C 2075.375 531.859375 2072.417969 528.261719 2064.585938 528.261719 C 2054.554688 528.261719 2053.800781 531.859375 2053.800781 579.5 M 2220.992188 570.96875 C 2220.992188 594.457031 2222.464844 617.511719 2224.265625 622.203125 C 2226.066406 626.894531 2233.347656 630.734375 2240.445312 630.734375 C 2248.320312 630.734375 2253.351562 627.582031 2253.351562 622.644531 C 2253.351562 618.195312 2250.925781 614.554688 2247.957031 614.554688 C 2244.816406 614.554688 2242.566406 596.582031 2242.566406 571.410156 C 2242.566406 531.859375 2241.664062 528.261719 2231.777344 528.261719 C 2221.894531 528.261719 2220.992188 531.859375 2220.992188 570.96875 M 1630.210938 555.371094 C 1624.191406 557.59375 1616.15625 563.15625 1612.359375 567.738281 C 1608.5625 572.308594 1605.246094 583.511719 1604.984375 592.628906 C 1604.726562 601.734375 1608.902344 614.042969 1614.261719 619.964844 C 1620.125 626.441406 1630.867188 630.734375 1641.214844 630.734375 C 1651.585938 630.734375 1662.304688 626.4375 1668.210938 619.917969 C 1673.59375 613.960938 1676.285156 607.382812 1674.191406 605.289062 C 1672.101562 603.199219 1665.675781 604.421875 1659.917969 608.019531 C 1654.15625 611.617188 1646.074219 614.554688 1641.945312 614.554688 C 1637.820312 614.554688 1631.425781 610.914062 1627.730469 606.464844 C 1621.910156 599.453125 1624.660156 598.375 1648.328125 598.375 C 1663.34375 598.375 1677.019531 596.132812 1678.71875 593.386719 C 1680.417969 590.640625 1679.007812 582.273438 1675.59375 574.78125 C 1672.179688 567.289062 1663.039062 558.945312 1655.273438 556.238281 C 1647.507812 553.53125 1636.230469 553.144531 1630.210938 555.371094 M 1833.878906 555.839844 C 1827.152344 558.332031 1820.195312 564.15625 1818.421875 568.785156 C 1816.640625 573.414062 1819.5 581.96875 1824.769531 587.789062 C 1830.039062 593.609375 1838.21875 598.414062 1842.949219 598.457031 C 1847.679688 598.5 1855.191406 600.933594 1859.640625 603.851562 C 1866.804688 608.554688 1866.808594 609.757812 1859.695312 614.328125 C 1854.226562 617.839844 1847.820312 616.976562 1839.660156 611.632812 C 1833.058594 607.308594 1825.152344 603.769531 1822.078125 603.769531 C 1819.003906 603.769531 1816.496094 607.324219 1816.496094 611.671875 C 1816.496094 616.011719 1821.1875 622.078125 1826.925781 625.152344 C 1832.664062 628.222656 1844.3125 630.734375 1852.8125 630.734375 C 1861.3125 630.734375 1871.183594 627.824219 1874.742188 624.265625 C 1878.300781 620.703125 1881.214844 612.308594 1881.214844 605.601562 C 1881.214844 596.058594 1876.539062 592.015625 1859.640625 586.953125 C 1847.777344 583.398438 1838.070312 577.234375 1838.070312 573.253906 C 1838.070312 569.273438 1841.5625 566.015625 1845.839844 566.015625 C 1850.117188 566.015625 1855.113281 568.445312 1856.945312 571.410156 C 1858.777344 574.375 1864.910156 576.804688 1870.578125 576.804688 C 1877.292969 576.804688 1879.84375 574.117188 1877.914062 569.089844 C 1876.289062 564.847656 1868.464844 559.113281 1860.53125 556.347656 C 1852.410156 553.515625 1840.757812 553.292969 1833.878906 555.839844 M 2158.753906 555.371094 C 2152.734375 557.59375 2144.457031 563.460938 2140.355469 568.394531 C 2136.257812 573.335938 2132.902344 584.5 2132.902344 593.199219 C 2132.902344 601.902344 2137.320312 613.910156 2142.726562 619.878906 C 2148.796875 626.589844 2159.363281 630.734375 2170.382812 630.734375 C 2181.777344 630.734375 2192.179688 626.476562 2199.210938 618.929688 C 2205.253906 612.441406 2210.207031 601.359375 2210.207031 594.308594 C 2210.207031 587.261719 2207.828125 577.046875 2204.925781 571.621094 C 2202.023438 566.195312 2192.910156 559.410156 2184.675781 556.539062 C 2176.4375 553.664062 2164.773438 553.144531 2158.753906 555.371094 M 2285.140625 556.242188 C 2277.410156 558.859375 2268.3125 567.101562 2264.914062 574.546875 C 2261.519531 581.996094 2258.746094 591.292969 2258.746094 595.207031 C 2258.746094 599.113281 2263.777344 608.710938 2269.925781 616.523438 C 2278.03125 626.832031 2286.074219 630.734375 2299.195312 630.734375 C 2312.316406 630.734375 2320.359375 626.832031 2328.464844 616.523438 C 2334.613281 608.710938 2339.644531 599.113281 2339.644531 595.207031 C 2339.644531 591.292969 2336.882812 582.035156 2333.507812 574.628906 C 2330.132812 567.21875 2321.03125 558.984375 2313.28125 556.324219 C 2305.089844 553.507812 2293.316406 553.476562 2285.140625 556.242188 M 2369.195312 556.5625 C 2363.320312 559.769531 2356.738281 565.035156 2354.558594 568.253906 C 2352.378906 571.472656 2350.5625 582.832031 2350.511719 593.496094 C 2350.457031 606.023438 2354.195312 616.292969 2361.074219 622.511719 C 2368.617188 629.339844 2376.464844 631.195312 2388.039062 628.875 C 2397.019531 627.078125 2404.363281 627.683594 2404.363281 630.214844 C 2404.363281 632.742188 2400.878906 637.699219 2396.621094 641.238281 C 2390.789062 646.074219 2386.054688 646.15625 2377.460938 641.554688 C 2371.183594 638.195312 2362.097656 636.203125 2357.277344 637.136719 C 2349.347656 638.664062 2349.414062 639.730469 2357.945312 648.265625 C 2363.558594 653.878906 2375.53125 657.703125 2387.488281 657.703125 C 2398.550781 657.703125 2410.511719 654.789062 2414.074219 651.230469 C 2418.058594 647.246094 2420.542969 627.699219 2420.542969 600.355469 L 2420.542969 555.953125 L 2405.140625 556.390625 C 2396.667969 556.632812 2387.515625 555.457031 2384.804688 553.773438 C 2382.085938 552.097656 2375.0625 553.351562 2369.195312 556.5625 M 1892 560.171875 C 1892 563.320312 1896.855469 578.667969 1902.78125 594.273438 C 1908.710938 609.875 1913.570312 626.890625 1913.570312 632.085938 C 1913.574219 637.277344 1909.933594 641.523438 1905.484375 641.523438 C 1901.035156 641.523438 1897.394531 645.324219 1897.394531 649.96875 C 1897.394531 656.003906 1901.632812 657.929688 1912.226562 656.710938 C 1925.71875 655.164062 1928.621094 650.496094 1944.347656 605.117188 C 1960.648438 558.078125 1961.035156 555.230469 1951.164062 555.230469 C 1943.242188 555.230469 1939.199219 561.191406 1934.53125 579.703125 C 1931.144531 593.167969 1926.863281 602.679688 1925.019531 600.835938 C 1923.175781 598.992188 1919.167969 588.609375 1916.109375 577.753906 C 1912.894531 566.328125 1906.648438 557.257812 1901.277344 556.226562 C 1896.175781 555.242188 1892 557.019531 1892 560.171875 M 1975.90625 567.21875 C 1971.289062 573.808594 1967.507812 585.945312 1967.507812 594.1875 C 1967.507812 602.421875 1972.359375 614.015625 1978.292969 619.949219 C 1984.90625 626.5625 1996.269531 630.734375 2007.648438 630.734375 C 2020.78125 630.734375 2028.703125 627.191406 2034.703125 618.628906 C 2040.375 610.527344 2041.191406 605.855469 2037.171875 604.519531 C 2033.867188 603.417969 2025.5 605.550781 2018.578125 609.253906 C 2011.652344 612.960938 2002.1875 614.53125 1997.53125 612.746094 C 1992.539062 610.828125 1989.082031 603.085938 1989.082031 593.8125 C 1989.082031 585.183594 1992.566406 575.234375 1996.824219 571.695312 C 2002.464844 567.015625 2007.503906 566.835938 2015.347656 571.039062 C 2021.273438 574.210938 2030.300781 576.804688 2035.402344 576.804688 C 2044.023438 576.804688 2043.988281 576.03125 2034.921875 566.015625 C 2028.433594 558.84375 2018.3125 555.230469 2004.730469 555.230469 C 1989.734375 555.230469 1982.070312 558.417969 1975.90625 567.21875 M 2431.332031 557.285156 C 2431.332031 558.410156 2437.441406 575.566406 2444.90625 595.40625 C 2452.371094 615.242188 2457.082031 633.730469 2455.375 636.496094 C 2453.664062 639.261719 2448.773438 641.523438 2444.496094 641.523438 C 2440.21875 641.523438 2436.722656 645.164062 2436.722656 649.613281 C 2436.722656 654.535156 2441.746094 657.703125 2449.550781 657.703125 C 2456.597656 657.703125 2464.683594 654.671875 2467.515625 650.960938 C 2470.347656 647.25 2479.421875 625.292969 2487.691406 602.164062 C 2495.957031 579.03125 2501.332031 558.707031 2499.621094 557.003906 C 2497.910156 555.292969 2492.90625 555.285156 2488.488281 556.976562 C 2484.078125 558.671875 2478.847656 568.707031 2476.859375 579.273438 C 2474.875 589.839844 2471.402344 599.636719 2469.148438 601.035156 C 2466.890625 602.433594 2461.992188 592.695312 2458.269531 579.402344 C 2453.339844 561.800781 2448.761719 555.230469 2441.417969 555.230469 C 2435.871094 555.230469 2431.332031 556.152344 2431.332031 557.285156 M 2282.421875 579.105469 C 2280.792969 583.339844 2280.265625 592.445312 2281.242188 599.332031 C 2282.523438 608.386719 2287.070312 612.328125 2297.660156 613.546875 C 2309.535156 614.917969 2312.960938 612.625 2315.769531 601.421875 C 2317.671875 593.828125 2317.835938 583.964844 2316.125 579.511719 C 2314.414062 575.054688 2306.800781 571.410156 2299.195312 571.410156 C 2291.589844 571.410156 2284.046875 574.871094 2282.421875 579.105469 M 1472.347656 684.808594 C 1462.527344 690.796875 1451.003906 704.050781 1446.730469 714.277344 C 1442.460938 724.5 1438.964844 740.460938 1438.964844 749.75 C 1438.964844 759.039062 1442.933594 774.996094 1447.78125 785.214844 C 1452.632812 795.4375 1463.433594 807.328125 1471.78125 811.648438 C 1480.132812 815.96875 1498.199219 819.5 1511.917969 819.5 C 1532.3125 819.5 1539.757812 816.617188 1552.640625 803.738281 C 1561.3125 795.0625 1568.402344 784.144531 1568.402344 779.46875 C 1568.402344 774.375 1563.777344 770.960938 1556.890625 770.960938 C 1550.550781 770.960938 1539.75 777.027344 1532.871094 784.445312 C 1526 791.859375 1515.246094 797.929688 1508.980469 797.929688 C 1502.714844 797.929688 1492.96875 795.457031 1487.332031 792.441406 C 1481.695312 789.429688 1474.441406 777.148438 1471.214844 765.160156 C 1466.3125 746.949219 1466.949219 740.085938 1475.078125 723.453125 C 1483.351562 706.515625 1487.796875 703.296875 1504.816406 701.882812 C 1519.71875 700.648438 1527.253906 703.058594 1534.328125 711.324219 C 1539.558594 717.429688 1549.359375 722.421875 1556.117188 722.421875 C 1562.875 722.421875 1568.402344 719.832031 1568.402344 716.671875 C 1568.402344 713.511719 1565.90625 706.257812 1562.847656 700.550781 C 1559.796875 694.839844 1550.207031 686.507812 1541.542969 682.027344 C 1532.882812 677.550781 1517.78125 673.894531 1508 673.902344 C 1498.214844 673.914062 1482.164062 678.824219 1472.347656 684.808594 M 2150.878906 742.917969 C 2150.878906 785.222656 2153.046875 808.726562 2157.351562 813.03125 C 2160.910156 816.589844 2170.617188 819.5 2178.925781 819.5 C 2190.429688 819.5 2194.027344 816.933594 2194.027344 808.714844 C 2194.027344 802.722656 2190.429688 797.929688 2185.9375 797.929688 C 2179.238281 797.929688 2177.847656 787.738281 2177.847656 738.601562 L 2177.847656 679.277344 L 2150.878906 679.277344 Z M 2204.8125 742.917969 C 2204.8125 785.222656 2206.980469 808.726562 2211.285156 813.03125 C 2214.84375 816.589844 2224.550781 819.5 2232.859375 819.5 C 2244.363281 819.5 2247.957031 816.933594 2247.957031 808.714844 C 2247.957031 802.722656 2244.363281 797.929688 2239.867188 797.929688 C 2233.171875 797.929688 2231.777344 787.738281 2231.777344 738.601562 L 2231.777344 679.277344 L 2204.8125 679.277344 Z M 1185 688.671875 C 1184.734375 690.917969 1184.933594 704.894531 1185.441406 719.726562 C 1185.964844 735.113281 1189.890625 750.617188 1194.582031 755.839844 C 1201.988281 764.074219 1201.761719 766.496094 1192.328125 780.109375 C 1186.207031 788.941406 1181.378906 805.882812 1180.722656 820.851562 C 1179.832031 840.945312 1181.402344 846.46875 1188 846.46875 C 1192.625 846.46875 1230.691406 829.296875 1272.59375 808.304688 L 1348.777344 770.136719 L 1331.496094 759.628906 C 1321.988281 753.847656 1285.25 734.601562 1249.847656 716.851562 C 1214.445312 699.105469 1185.265625 686.425781 1185 688.671875 M 278.058594 728.132812 C 237.273438 748.761719 203.898438 766.953125 203.898438 768.554688 C 203.898438 770.15625 238.453125 788.34375 280.6875 808.96875 C 322.925781 829.59375 359.324219 846.46875 361.589844 846.46875 C 363.855469 846.46875 365.699219 833.886719 365.699219 818.5 C 365.699219 797.210938 362.898438 787.550781 353.972656 778.046875 L 342.242188 765.570312 L 353.972656 753.089844 C 362.566406 743.9375 365.699219 733.855469 365.699219 715.335938 C 365.699219 698.5625 363.433594 690.160156 358.957031 690.34375 C 355.25 690.5 318.847656 707.503906 278.058594 728.132812 M 1602.246094 724.699219 C 1592.964844 732.507812 1583.84375 745.855469 1581.976562 754.367188 C 1579.988281 763.421875 1581.875 777.730469 1586.519531 788.847656 C 1590.882812 799.296875 1599.355469 810.46875 1605.347656 813.675781 C 1611.335938 816.878906 1625.496094 819.425781 1636.8125 819.328125 C 1648.132812 819.238281 1661.242188 816.199219 1665.953125 812.585938 C 1670.660156 808.972656 1677.332031 800.714844 1680.785156 794.238281 C 1684.230469 787.757812 1687.054688 773.9375 1687.054688 763.53125 C 1687.054688 751.671875 1682.519531 739.324219 1674.910156 730.480469 C 1666.890625 721.15625 1655.359375 715.367188 1640.945312 713.429688 C 1622.753906 710.992188 1616.300781 712.875 1602.246094 724.699219 M 1857.652344 715.421875 C 1855.570312 717.503906 1845.457031 718.640625 1835.183594 717.949219 L 1816.496094 716.6875 L 1816.496094 768.097656 C 1816.496094 819.085938 1816.601562 819.5 1829.742188 819.5 C 1842.425781 819.5 1843.058594 817.863281 1844.574219 780.964844 C 1845.738281 752.601562 1848.457031 740.984375 1854.863281 736.960938 C 1859.652344 733.953125 1867.539062 733.015625 1872.390625 734.875 C 1879.476562 737.597656 1881.214844 746.25 1881.214844 778.882812 C 1881.214844 819.042969 1881.375 819.5 1895.253906 819.5 L 1909.285156 819.5 L 1907.386719 773.222656 C 1905.8125 735 1903.660156 725.613281 1895.015625 719.289062 C 1889.257812 715.082031 1879.347656 711.636719 1872.996094 711.636719 C 1866.640625 711.636719 1859.734375 713.339844 1857.652344 715.421875 M 1941.742188 720.03125 C 1934.171875 725.335938 1929.753906 734.035156 1929.753906 743.640625 C 1929.753906 752.011719 1932.789062 761.339844 1936.496094 764.382812 C 1940.207031 767.417969 1953.554688 772.667969 1966.160156 776.035156 C 1978.828125 779.425781 1989.082031 785.433594 1989.082031 789.472656 C 1989.082031 793.488281 1984.964844 798.355469 1979.9375 800.285156 C 1974.523438 802.363281 1964.707031 799.292969 1955.886719 792.773438 C 1947.6875 786.710938 1937.242188 781.75 1932.667969 781.75 C 1928.09375 781.75 1924.359375 785.210938 1924.359375 789.445312 C 1924.359375 793.683594 1930.757812 802.179688 1938.574219 808.320312 C 1947.039062 814.988281 1960.71875 819.5 1972.425781 819.5 C 1983.234375 819.5 1997.46875 815.722656 2004.058594 811.105469 C 2010.648438 806.488281 2016.046875 797.15625 2016.046875 790.367188 C 2016.046875 783.582031 2011.796875 774.234375 2006.609375 769.601562 C 2001.421875 764.96875 1986.695312 758.390625 1973.898438 754.980469 C 1960.214844 751.335938 1951.503906 746.132812 1952.75 742.34375 C 1953.917969 738.800781 1959.746094 735.183594 1965.707031 734.296875 C 1971.664062 733.414062 1979.660156 736.445312 1983.472656 741.039062 C 1987.285156 745.628906 1994.960938 749.386719 2000.523438 749.386719 C 2006.089844 749.386719 2010.652344 745.925781 2010.652344 741.691406 C 2010.652344 737.453125 2004.257812 728.957031 1996.441406 722.816406 C 1988.628906 716.667969 1975.820312 711.636719 1967.980469 711.636719 C 1960.144531 711.636719 1948.335938 715.417969 1941.742188 720.03125 M 2049.003906 725.441406 C 2039.40625 733.519531 2031.203125 746.675781 2029.238281 757.148438 C 2027.042969 768.820312 2028.878906 780.84375 2034.503906 791.71875 C 2039.242188 800.890625 2047.792969 810.894531 2053.503906 813.945312 C 2059.210938 817.003906 2072.203125 819.5 2082.378906 819.5 C 2092.933594 819.5 2106.988281 814.695312 2115.09375 808.320312 C 2122.910156 802.179688 2129.304688 793.683594 2129.304688 789.445312 C 2129.304688 785.210938 2124.75 781.75 2119.179688 781.75 C 2113.605469 781.75 2105.933594 785.511719 2102.113281 790.113281 C 2098.296875 794.707031 2089.175781 797.746094 2081.839844 796.855469 C 2074.503906 795.964844 2064.898438 789.773438 2060.492188 783.097656 L 2052.484375 770.960938 L 2093.59375 770.960938 C 2125.945312 770.960938 2134.699219 769.296875 2134.699219 763.125 C 2134.699219 758.816406 2131.796875 748.925781 2128.253906 741.148438 C 2124.710938 733.371094 2115.128906 723.550781 2106.953125 719.320312 C 2098.773438 715.09375 2086.085938 711.636719 2078.75 711.636719 C 2071.414062 711.636719 2058.027344 717.847656 2049.003906 725.441406 M 2348.441406 715.421875 C 2346.359375 717.503906 2336.246094 718.640625 2325.972656 717.949219 L 2307.285156 716.6875 L 2307.285156 768.097656 C 2307.285156 819.335938 2307.328125 819.5 2320.769531 819.5 C 2333.84375 819.5 2334.25 818.378906 2334.25 782.40625 C 2334.25 755.144531 2336.515625 743.441406 2342.796875 738.222656 C 2348.976562 733.09375 2353.820312 732.695312 2360.324219 736.785156 C 2367.058594 741.019531 2369.707031 752.074219 2370.894531 780.964844 C 2372.429688 818.308594 2372.90625 819.5 2386.296875 819.5 L 2400.113281 819.5 L 2398.128906 775.828125 C 2396.402344 737.804688 2394.503906 730.824219 2383.476562 721.894531 C 2376.507812 716.253906 2366.628906 711.636719 2361.519531 711.636719 C 2356.40625 711.636719 2350.523438 713.339844 2348.441406 715.421875 M 2431.503906 726.8125 C 2418.542969 739.773438 2415.152344 747.8125 2415.152344 765.570312 C 2415.152344 783.140625 2418.554688 791.371094 2430.914062 803.738281 C 2439.589844 812.410156 2451.878906 819.5 2458.238281 819.5 C 2464.597656 819.5 2474.488281 816.988281 2480.226562 813.917969 C 2488.921875 809.265625 2490.65625 810.128906 2490.65625 819.125 C 2490.65625 825.054688 2485.710938 832.554688 2479.664062 835.789062 C 2473.621094 839.023438 2463.910156 840.164062 2458.09375 838.3125 C 2452.273438 836.464844 2447.511719 832.691406 2447.511719 829.925781 C 2447.511719 827.160156 2441.445312 824.894531 2434.027344 824.894531 C 2425.875 824.894531 2420.542969 827.96875 2420.542969 832.675781 C 2420.542969 836.960938 2425.9375 844.242188 2432.535156 848.855469 C 2439.183594 853.515625 2455.613281 857.253906 2469.449219 857.253906 C 2487.929688 857.253906 2497.039062 854.320312 2504.652344 845.917969 C 2513.148438 836.542969 2515.246094 824.371094 2516.753906 775.605469 L 2518.589844 716.625 L 2500.574219 716.976562 C 2490.671875 717.164062 2474.757812 715.777344 2465.210938 713.890625 C 2450.632812 711.007812 2445.238281 713.074219 2431.503906 726.8125 M 1703.316406 753.433594 C 1703.359375 773.457031 1706.460938 795.90625 1710.210938 803.320312 C 1716.453125 815.675781 1720.277344 816.878906 1755.972656 817.726562 L 1794.921875 818.648438 L 1794.921875 767.839844 C 1794.921875 717.476562 1794.804688 717.027344 1781.675781 717.027344 C 1768.96875 717.027344 1768.367188 718.636719 1766.84375 756.128906 L 1765.257812 795.230469 L 1732.898438 795.230469 L 1731.3125 756.128906 C 1729.792969 718.636719 1729.1875 717.027344 1716.480469 717.027344 C 1703.714844 717.027344 1703.242188 718.351562 1703.316406 753.433594 M 2258.746094 768.265625 C 2258.746094 819.324219 2258.792969 819.5 2272.230469 819.5 C 2285.664062 819.5 2285.710938 819.324219 2285.710938 768.265625 C 2285.710938 717.207031 2285.664062 717.027344 2272.230469 717.027344 C 2258.792969 717.027344 2258.746094 717.207031 2258.746094 768.265625 M 1616.941406 743.996094 C 1611.011719 749.929688 1606.15625 759.097656 1606.15625 764.367188 C 1606.15625 769.636719 1609.9375 779.347656 1614.554688 785.9375 C 1619.171875 792.535156 1628.394531 797.929688 1635.046875 797.929688 C 1641.703125 797.929688 1650.058594 795.015625 1653.617188 791.457031 C 1657.175781 787.898438 1660.089844 777.351562 1660.089844 768.023438 C 1660.089844 758.4375 1655.796875 747.175781 1650.226562 742.132812 C 1644.800781 737.226562 1637.519531 733.207031 1634.046875 733.207031 C 1630.570312 733.207031 1622.875 738.0625 1616.941406 743.996094 M 2450.589844 741.679688 C 2445.929688 746.347656 2442.117188 757.09375 2442.117188 765.570312 C 2442.117188 774.042969 2445.929688 784.789062 2450.589844 789.457031 C 2455.253906 794.113281 2462.074219 797.929688 2465.738281 797.929688 C 2469.40625 797.929688 2476.898438 794.648438 2482.378906 790.640625 C 2488.898438 785.875 2492.167969 777.074219 2491.828125 765.191406 C 2491.527344 754.585938 2487.378906 744.152344 2481.867188 740.117188 C 2476.667969 736.316406 2469.414062 733.207031 2465.742188 733.207031 C 2462.074219 733.207031 2455.253906 737.023438 2450.589844 741.679688 M 1476.851562 890.664062 C 1473.265625 900.472656 1463.535156 927.90625 1455.226562 951.636719 C 1446.914062 975.367188 1438.382812 999.035156 1436.269531 1004.222656 C 1433.175781 1011.792969 1435.222656 1013.660156 1446.613281 1013.660156 C 1456.789062 1013.660156 1462.253906 1009.847656 1465.929688 1000.175781 C 1470.464844 988.253906 1474.203125 986.695312 1498.289062 986.695312 C 1522.378906 986.695312 1526.113281 988.253906 1530.652344 1000.175781 C 1534.246094 1009.648438 1539.828125 1013.660156 1549.390625 1013.660156 C 1556.882812 1013.660156 1562.972656 1013.050781 1562.925781 1012.3125 C 1562.875 1011.574219 1552.246094 980.625 1539.300781 943.546875 C 1516.660156 878.699219 1515.148438 876.066406 1499.570312 874.484375 C 1485.539062 873.0625 1482.5 875.230469 1476.851562 890.664062 M 2183.238281 892.3125 C 2183.238281 905.492188 2180.800781 911.1875 2175.148438 911.1875 C 2170.699219 911.1875 2167.058594 914.828125 2167.058594 919.277344 C 2167.058594 923.726562 2170.699219 927.367188 2175.148438 927.367188 C 2181.546875 927.367188 2183.238281 935.035156 2183.238281 964.042969 C 2183.238281 985.378906 2185.945312 1003.421875 2189.710938 1007.1875 C 2193.269531 1010.746094 2204.191406 1013.660156 2213.980469 1013.660156 C 2228.183594 1013.660156 2231.777344 1011.480469 2231.777344 1002.875 C 2231.777344 995.683594 2228.183594 992.085938 2220.992188 992.085938 C 2211.402344 992.085938 2210.207031 988.488281 2210.207031 959.726562 C 2210.207031 930.964844 2211.402344 927.367188 2220.992188 927.367188 C 2226.984375 927.367188 2231.777344 923.769531 2231.777344 919.277344 C 2231.777344 914.785156 2226.984375 911.1875 2220.992188 911.1875 C 2212.261719 911.1875 2210.207031 907.589844 2210.207031 892.3125 C 2210.207031 875.769531 2208.535156 873.433594 2196.722656 873.433594 C 2184.910156 873.433594 2183.238281 875.769531 2183.238281 892.3125 M 1591.488281 911.046875 C 1584.902344 913.832031 1577.9375 922.382812 1576.011719 930.046875 C 1573.617188 939.597656 1575.496094 947.273438 1581.988281 954.445312 C 1587.195312 960.203125 1599.535156 966.425781 1609.402344 968.277344 C 1619.273438 970.125 1629.886719 974.703125 1633 978.453125 C 1637.054688 983.339844 1636.300781 987.210938 1630.335938 992.164062 C 1623.960938 997.453125 1618.902344 997.648438 1608.691406 992.992188 C 1601.367188 989.65625 1595.371094 984.445312 1595.371094 981.414062 C 1595.371094 978.382812 1590.660156 975.90625 1584.902344 975.90625 C 1579.140625 975.90625 1572.945312 978.3125 1571.128906 981.257812 C 1569.308594 984.195312 1573.910156 992.691406 1581.351562 1000.132812 C 1591.632812 1010.414062 1600.433594 1013.636719 1618.050781 1013.578125 C 1630.789062 1013.53125 1643.882812 1011.714844 1647.144531 1009.535156 C 1650.410156 1007.355469 1656.042969 999.945312 1659.664062 993.074219 C 1665.019531 982.914062 1664.75 978.285156 1658.210938 968.3125 C 1653.195312 960.65625 1641.441406 954.210938 1626.894531 951.140625 C 1611.515625 947.894531 1602.984375 943.019531 1601.789062 936.792969 C 1600.457031 929.890625 1603.507812 927.367188 1613.191406 927.367188 C 1620.460938 927.367188 1629.429688 931.007812 1633.125 935.457031 C 1636.816406 939.90625 1644.394531 943.546875 1649.960938 943.546875 C 1655.527344 943.546875 1660.089844 941.390625 1660.089844 938.753906 C 1660.089844 936.113281 1655.839844 928.757812 1650.652344 922.40625 C 1645.429688 916.019531 1632.777344 909.769531 1622.335938 908.414062 C 1611.953125 907.074219 1598.074219 908.257812 1591.488281 911.046875 M 1693.652344 914.191406 C 1686.078125 919.492188 1681.664062 928.191406 1681.664062 937.796875 C 1681.664062 946.167969 1684.699219 955.5 1688.40625 958.539062 C 1692.113281 961.578125 1705.464844 966.824219 1718.066406 970.195312 C 1730.738281 973.582031 1740.988281 979.589844 1740.988281 983.628906 C 1740.988281 987.648438 1736.875 992.511719 1731.847656 994.445312 C 1726.433594 996.519531 1716.617188 993.453125 1707.792969 986.929688 C 1699.597656 980.867188 1689.148438 975.90625 1684.574219 975.90625 C 1680 975.90625 1676.269531 979.371094 1676.269531 983.601562 C 1676.269531 987.84375 1682.667969 996.335938 1690.480469 1002.480469 C 1698.949219 1009.144531 1712.625 1013.660156 1724.335938 1013.660156 C 1735.144531 1013.660156 1749.375 1009.878906 1755.964844 1005.261719 C 1762.558594 1000.644531 1767.957031 991.316406 1767.957031 984.527344 C 1767.957031 977.742188 1763.707031 968.394531 1758.515625 963.761719 C 1753.328125 959.128906 1738.605469 952.546875 1725.808594 949.140625 C 1712.125 945.496094 1703.414062 940.289062 1704.660156 936.503906 C 1705.824219 932.960938 1711.65625 929.339844 1717.613281 928.457031 C 1723.574219 927.574219 1731.566406 930.605469 1735.378906 935.199219 C 1739.191406 939.789062 1746.867188 943.546875 1752.433594 943.546875 C 1758 943.546875 1762.5625 940.085938 1762.5625 935.851562 C 1762.5625 931.613281 1756.164062 923.117188 1748.351562 916.976562 C 1740.535156 910.824219 1727.726562 905.792969 1719.890625 905.792969 C 1712.054688 905.792969 1700.242188 909.574219 1693.652344 914.191406 M 1813.027344 910.890625 C 1806.667969 913.59375 1797.570312 921.375 1792.800781 928.183594 C 1788.035156 934.988281 1784.136719 951.042969 1784.136719 963.871094 C 1784.136719 981.429688 1787.402344 990.449219 1797.375 1000.417969 C 1807.449219 1010.5 1816.328125 1013.660156 1834.53125 1013.660156 C 1849.347656 1013.660156 1862.808594 1010.066406 1869.90625 1004.222656 C 1876.210938 999.035156 1883.359375 987.503906 1885.800781 978.605469 C 1888.238281 969.703125 1888.238281 954.941406 1885.804688 945.808594 C 1883.371094 936.671875 1876.785156 925.03125 1871.175781 919.957031 C 1865.570312 914.882812 1852.792969 909.65625 1842.78125 908.351562 C 1832.773438 907.046875 1819.386719 908.1875 1813.027344 910.890625 M 1931.679688 910.890625 C 1925.320312 913.59375 1916.222656 921.375 1911.453125 928.183594 C 1906.6875 934.988281 1902.789062 949.535156 1902.789062 960.515625 C 1902.789062 974.117188 1907.230469 985.753906 1916.75 997.066406 C 1928.25 1010.730469 1934.699219 1013.660156 1953.300781 1013.660156 C 1965.726562 1013.660156 1981.289062 1009.878906 1987.878906 1005.261719 C 1994.472656 1000.644531 1999.867188 992.152344 1999.867188 986.386719 C 1999.867188 979.449219 1996.167969 975.90625 1988.914062 975.90625 C 1982.882812 975.90625 1976.558594 979.546875 1974.851562 983.996094 C 1973.148438 988.445312 1965.210938 992.085938 1957.222656 992.085938 C 1949.234375 992.085938 1939.785156 989.175781 1936.226562 985.613281 C 1932.667969 982.054688 1929.753906 971.304688 1929.753906 961.726562 C 1929.753906 952.15625 1933.566406 940.503906 1938.226562 935.839844 C 1942.890625 931.179688 1950.589844 927.367188 1955.335938 927.367188 C 1960.082031 927.367188 1968.199219 931.203125 1973.378906 935.890625 C 1978.558594 940.582031 1988.277344 943.613281 1994.96875 942.628906 L 2007.148438 940.851562 L 1994.070312 925.835938 C 1985.859375 916.414062 1973.964844 909.921875 1962.113281 908.398438 C 1951.730469 907.066406 1938.039062 908.1875 1931.679688 910.890625 M 2084.8125 916.484375 C 2076.652344 922.902344 2069.980469 931.613281 2069.980469 935.851562 C 2069.980469 940.085938 2074.539062 943.546875 2080.109375 943.546875 C 2085.679688 943.546875 2093.347656 939.789062 2097.164062 935.199219 C 2100.976562 930.609375 2109.136719 927.570312 2115.292969 928.457031 C 2121.460938 929.339844 2127.246094 933.984375 2128.15625 938.773438 C 2129.394531 945.269531 2123.960938 948.417969 2106.777344 951.164062 C 2094.109375 953.191406 2079.433594 958.75 2074.164062 963.519531 C 2068.894531 968.285156 2064.585938 978.605469 2064.585938 986.449219 C 2064.585938 994.296875 2067.5 1003.628906 2071.058594 1007.1875 C 2074.617188 1010.746094 2086.269531 1013.660156 2096.945312 1013.660156 C 2107.625 1013.660156 2119.273438 1010.746094 2122.835938 1007.1875 C 2127.867188 1002.15625 2129.304688 1002.15625 2129.304688 1007.1875 C 2129.304688 1010.746094 2135.632812 1013.660156 2143.359375 1013.660156 L 2157.417969 1013.660156 L 2155.464844 970.675781 C 2154.117188 940.96875 2150.90625 925.082031 2145.082031 919.253906 C 2140.445312 914.617188 2128.324219 909.472656 2118.140625 907.820312 C 2104.199219 905.5625 2095.980469 907.699219 2084.8125 916.484375 M 2308.769531 918.855469 C 2299.488281 926.667969 2290.367188 940.015625 2288.5 948.523438 C 2286.511719 957.582031 2288.398438 971.890625 2293.042969 983.003906 C 2297.40625 993.457031 2305.878906 1004.625 2311.871094 1007.835938 C 2317.855469 1011.039062 2332.019531 1013.585938 2343.335938 1013.488281 C 2354.65625 1013.394531 2367.765625 1010.359375 2372.472656 1006.746094 C 2377.183594 1003.132812 2383.855469 994.875 2387.304688 988.398438 C 2390.753906 981.914062 2393.578125 968.097656 2393.578125 957.6875 C 2393.578125 945.828125 2389.042969 933.484375 2381.433594 924.636719 C 2373.414062 915.3125 2361.882812 909.527344 2347.464844 907.589844 C 2329.273438 905.152344 2322.824219 907.035156 2308.769531 918.855469 M 2450.914062 909.582031 C 2448.832031 911.660156 2438.71875 912.800781 2428.445312 912.109375 L 2409.757812 910.847656 L 2409.757812 962.257812 C 2409.757812 1013.492188 2409.800781 1013.660156 2423.242188 1013.660156 C 2436.140625 1013.660156 2436.722656 1012.246094 2436.722656 980.945312 C 2436.722656 962.953125 2439.238281 943.535156 2442.304688 937.796875 C 2445.378906 932.058594 2452.722656 927.367188 2458.621094 927.367188 C 2465.175781 927.367188 2471.398438 932.75 2474.613281 941.199219 C 2477.503906 948.8125 2479.871094 968.226562 2479.871094 984.347656 C 2479.871094 1010.0625 2481.191406 1013.660156 2490.65625 1013.660156 C 2500.542969 1013.660156 2501.445312 1010.0625 2501.445312 970.515625 C 2501.445312 934.558594 2499.648438 925.570312 2490.65625 916.582031 C 2484.726562 910.648438 2474.207031 905.792969 2467.289062 905.792969 C 2460.367188 905.792969 2452.996094 907.5 2450.914062 909.582031 M 2021.441406 962.421875 C 2021.441406 1013.480469 2021.488281 1013.660156 2034.921875 1013.660156 C 2048.359375 1013.660156 2048.40625 1013.480469 2048.40625 962.421875 C 2048.40625 911.367188 2048.359375 911.1875 2034.921875 911.1875 C 2021.488281 911.1875 2021.441406 911.367188 2021.441406 962.421875 M 2242.566406 962.421875 C 2242.566406 1013.480469 2242.613281 1013.660156 2256.050781 1013.660156 C 2269.484375 1013.660156 2269.53125 1013.480469 2269.53125 962.421875 C 2269.53125 911.367188 2269.484375 911.1875 2256.050781 911.1875 C 2242.613281 911.1875 2242.566406 911.367188 2242.566406 962.421875 M 1819.320312 934.691406 C 1813.300781 939.097656 1809.304688 948.671875 1809.304688 958.675781 C 1809.304688 967.839844 1812.433594 979.101562 1816.257812 983.710938 C 1820.082031 988.316406 1828.683594 992.085938 1835.371094 992.085938 C 1842.058594 992.085938 1850.660156 988.316406 1854.484375 983.710938 C 1858.308594 979.101562 1861.4375 967.839844 1861.4375 958.675781 C 1861.4375 948.671875 1857.441406 939.097656 1851.421875 934.691406 C 1845.910156 930.664062 1838.6875 927.367188 1835.371094 927.367188 C 1832.054688 927.367188 1824.832031 930.664062 1819.320312 934.691406 M 2323.464844 938.152344 C 2317.53125 944.085938 2312.679688 953.253906 2312.679688 958.523438 C 2312.679688 963.792969 2316.460938 973.507812 2321.074219 980.097656 C 2325.691406 986.695312 2334.914062 992.085938 2341.570312 992.085938 C 2348.226562 992.085938 2356.578125 989.175781 2360.140625 985.613281 C 2363.699219 982.054688 2366.613281 971.511719 2366.613281 962.179688 C 2366.613281 952.597656 2362.320312 941.335938 2356.746094 936.292969 C 2351.320312 931.386719 2344.039062 927.367188 2340.566406 927.367188 C 2337.09375 927.367188 2329.398438 932.222656 2323.464844 938.152344 M 481.691406 1067.945312 L 444.90625 1106.050781 L 456.589844 1117.734375 L 468.273438 1129.421875 L 506.507812 1091.1875 C 542.003906 1055.683594 544.222656 1052.136719 537.511719 1041.398438 C 533.542969 1035.042969 527.636719 1029.839844 524.390625 1029.839844 C 521.136719 1029.839844 501.925781 1046.984375 481.691406 1067.945312 M 1024.5 1041.324219 C 1017.9375 1051.828125 1019.582031 1055.140625 1043.9375 1080.421875 C 1058.574219 1095.609375 1075.816406 1114.003906 1082.257812 1121.289062 L 1093.964844 1134.535156 L 1105.582031 1122.921875 L 1117.195312 1111.304688 L 1080.742188 1070.574219 C 1060.691406 1048.171875 1041.445312 1029.839844 1037.976562 1029.839844 C 1034.511719 1029.839844 1028.441406 1035.007812 1024.5 1041.320312 " fill-opacity="1" fill-rule="evenodd"/></g></svg>